<?xml version="1.0" standalone="no"?>
<!DOCTYPE svg PUBLIC "-//W3C//DTD SVG 20010904//EN"
 "http://www.w3.org/TR/2001/REC-SVG-20010904/DTD/svg10.dtd">
<svg version="1.0" xmlns="http://www.w3.org/2000/svg"
 width="1500.000000pt" height="1500.000000pt" viewBox="0 0 1500.000000 1500.000000"
 preserveAspectRatio="xMidYMid meet">
<metadata>
Created by potrace 1.11, written by Peter Selinger 2001-2013
</metadata>
<g transform="translate(0.000000,1500.000000) scale(0.100000,-0.100000)"
fill="#000000" stroke="none">
<path d="M9180 10253 l0 -30 83 -6 c45 -4 114 -15 152 -26 98 -29 239 -101
311 -160 l62 -50 21 23 22 23 -43 35 c-160 129 -339 203 -520 215 l-88 6 0
-30z"/>
<path d="M9024 10076 c-148 -34 -268 -100 -374 -207 -110 -111 -174 -229 -207
-382 -21 -98 -13 -267 17 -362 79 -253 276 -442 532 -512 88 -24 289 -24 378
1 261 71 465 275 536 536 25 89 25 290 1 378 -70 257 -258 452 -512 532 -90
28 -281 36 -371 16z m294 -62 c46 -9 115 -34 171 -61 164 -81 288 -226 348
-408 23 -69 27 -96 27 -205 0 -109 -4 -136 -27 -205 -37 -112 -90 -198 -173
-280 -83 -83 -169 -136 -279 -172 -69 -23 -97 -26 -205 -26 -109 -1 -135 3
-205 26 -190 63 -328 184 -415 362 -128 264 -75 570 135 781 166 167 391 235
623 188z"/>
<path d="M9073 9729 c-44 -23 -55 -116 -27 -235 18 -78 37 -119 59 -127 8 -4
15 -13 15 -22 0 -12 13 -15 60 -15 35 0 60 4 60 10 0 6 12 21 26 33 47 40 83
242 54 298 -27 49 -190 87 -247 58z"/>
<path d="M9020 9282 c-46 -46 -60 -89 -67 -209 -4 -67 -2 -97 7 -108 10 -12
47 -15 220 -15 154 0 210 3 217 13 20 24 24 70 12 150 -14 101 -40 160 -83
187 -65 40 -68 36 -108 -132 -19 -84 -38 -146 -41 -138 -3 8 -20 77 -38 153
-30 130 -33 137 -57 137 -15 0 -39 -15 -62 -38z"/>
<path d="M5762 9803 c-76 -37 -142 -151 -142 -243 0 -23 -14 -67 -35 -111 -47
-98 -48 -156 -5 -193 30 -24 114 -56 151 -56 30 0 49 -11 49 -29 0 -24 -20
-41 -49 -41 -40 0 -128 -56 -155 -98 -30 -46 -41 -84 -61 -196 -26 -154 -17
-264 25 -286 11 -6 148 -10 334 -10 300 0 317 1 335 19 27 27 35 78 28 175 -8
109 -32 221 -60 276 -24 46 -97 106 -143 115 -13 3 -35 7 -49 10 -37 8 -35 53
3 60 171 35 202 57 202 138 0 40 -8 69 -30 113 -20 40 -30 74 -30 105 0 106
-61 212 -144 250 -53 24 -177 25 -224 2z"/>
<path d="M8243 9253 c30 -440 408 -818 850 -850 l87 -6 0 30 0 30 -77 6 c-333
26 -643 265 -754 583 -26 74 -49 192 -49 250 0 43 -1 44 -31 44 l-32 0 6 -87z"/>
<path d="M2984 9260 c-106 -22 -216 -108 -260 -205 -37 -80 -47 -168 -41 -355
4 -138 8 -175 27 -223 28 -76 110 -164 187 -202 l58 -30 320 -3 320 -3 208
-207 207 -207 0 221 0 221 38 25 c92 62 152 152 172 257 13 71 13 332 -1 406
-23 124 -100 223 -217 278 l-67 32 -455 2 c-250 1 -474 -2 -496 -7z m240 -451
c50 -40 21 -119 -44 -119 -65 0 -94 79 -44 119 15 12 34 21 44 21 10 0 29 -9
44 -21z m274 4 c32 -27 37 -64 12 -96 -43 -54 -123 -25 -123 45 0 57 67 88
111 51z m276 -4 c50 -40 24 -119 -40 -119 -68 0 -97 68 -49 115 30 30 54 31
89 4z"/>
<path d="M11075 9193 c-92 -48 -107 -92 -103 -295 3 -153 3 -155 32 -192 33
-44 81 -76 114 -76 21 0 22 -4 22 -82 l0 -83 78 77 77 77 260 3 c283 3 290 5
347 65 42 44 48 74 48 234 0 188 -15 226 -107 273 -28 14 -79 16 -385 16 -302
-1 -357 -3 -383 -17z m203 -239 c40 -28 19 -94 -30 -94 -27 0 -58 28 -58 52 0
21 34 58 53 58 7 0 23 -7 35 -16z m208 8 c43 -28 30 -94 -19 -100 -36 -4 -57
13 -57 46 0 44 44 76 76 54z m222 -8 c41 -29 19 -94 -33 -94 -51 0 -71 54 -35
90 24 24 38 25 68 4z"/>
<path d="M7638 8623 c-3 -34 -6 -37 -49 -50 -69 -19 -109 -69 -109 -133 0 -40
5 -55 30 -83 16 -19 52 -44 80 -56 l50 -22 0 -95 0 -96 -42 7 c-24 4 -62 13
-85 20 l-43 13 0 -34 c0 -41 19 -51 111 -61 l59 -6 0 -48 c0 -48 1 -49 30 -49
30 0 30 1 30 54 l0 53 40 7 c76 12 140 97 123 165 -11 47 -35 71 -99 102 l-64
30 0 90 c0 100 1 101 84 78 41 -11 50 -7 60 27 7 23 3 24 -121 50 -19 3 -23
11 -23 39 0 32 -2 35 -29 35 -27 0 -30 -3 -33 -37z m2 -183 c0 -44 -2 -80 -5
-80 -21 0 -68 35 -76 57 -12 33 4 76 34 91 44 21 47 16 47 -68z m107 -199 c55
-34 56 -98 3 -126 -47 -24 -50 -21 -50 65 0 44 3 80 8 80 4 0 21 -9 39 -19z"/>
<path d="M5860 8343 c0 -32 2 -34 28 -31 23 2 27 8 27 32 0 26 -4 30 -27 31
-25 2 -28 -1 -28 -32z"/>
<path d="M10014 8344 c-16 -39 -13 -48 23 -58 16 -5 23 -2 28 14 3 11 15 20
26 20 14 0 19 7 19 30 0 28 -2 30 -41 30 -37 0 -41 -3 -55 -36z"/>
<path d="M10230 8350 l0 -30 60 0 60 0 0 30 0 30 -60 0 -60 0 0 -30z"/>
<path d="M10470 8350 l0 -30 60 0 60 0 0 30 0 30 -60 0 -60 0 0 -30z"/>
<path d="M10710 8350 l0 -30 60 0 60 0 0 30 0 30 -60 0 -60 0 0 -30z"/>
<path d="M10950 8350 c0 -27 3 -30 30 -30 27 0 30 3 30 30 0 27 -3 30 -30 30
-27 0 -30 -3 -30 -30z"/>
<path d="M5860 8115 l0 -65 30 0 30 0 0 65 0 65 -30 0 -30 0 0 -65z"/>
<path d="M9921 8113 c-22 -58 -21 -66 14 -77 17 -5 24 3 43 52 21 53 21 58 5
70 -29 21 -40 14 -62 -45z"/>
<path d="M12370 8091 c-141 -19 -257 -78 -366 -186 -137 -136 -202 -302 -190
-490 3 -49 13 -115 22 -145 62 -211 254 -395 465 -445 82 -19 226 -19 307 0
179 42 341 173 423 341 92 190 91 383 -2 574 -33 68 -59 101 -123 165 -87 86
-160 131 -266 163 -77 23 -193 33 -270 23z m234 -77 c127 -33 269 -137 342
-251 45 -69 83 -186 90 -275 22 -268 -172 -532 -441 -603 -76 -19 -204 -19
-280 0 -214 56 -385 235 -430 450 -28 132 -11 248 55 381 68 139 229 268 376
303 65 15 220 12 288 -5z"/>
<path d="M12355 7867 c-73 -20 -132 -53 -192 -109 -98 -93 -138 -195 -131
-333 3 -64 11 -95 36 -148 127 -272 456 -333 684 -129 110 100 156 277 109
430 -51 169 -205 289 -380 298 -43 2 -98 -2 -126 -9z"/>
<path d="M13025 8020 c-18 -20 -17 -21 22 -68 106 -126 164 -256 184 -412 40
-308 -137 -626 -421 -759 -81 -38 -208 -71 -272 -71 -47 0 -48 -1 -48 -30 0
-30 1 -30 53 -30 73 0 172 23 258 59 229 96 401 292 471 537 29 104 32 304 4
404 -38 140 -112 274 -193 353 -39 37 -39 37 -58 17z"/>
<path d="M5860 7855 l0 -65 30 0 30 0 0 65 0 65 -30 0 -30 0 0 -65z"/>
<path d="M9821 7864 c-12 -31 -20 -58 -19 -59 10 -8 50 -26 52 -23 9 11 48
119 45 123 -2 2 -16 6 -30 10 -24 6 -27 2 -48 -51z"/>
<path d="M7310 7730 l0 -30 327 -2 327 -3 45 -145 45 -145 3 -1447 2 -1448
-58 0 c-55 0 -61 2 -91 37 -85 97 -109 209 -120 558 -8 292 -19 361 -75 479
-71 151 -212 272 -378 326 l-39 12 79 45 c215 122 338 276 379 473 20 93 14
303 -11 400 -85 327 -348 544 -755 623 -99 19 -153 20 -872 24 l-768 4 0
-1490 0 -1491 -382 0 -383 0 57 24 c79 32 192 104 261 167 186 166 297 433
297 716 l0 53 -435 0 -435 0 0 -47 c-1 -69 -24 -189 -49 -252 -47 -118 -136
-201 -258 -242 -80 -26 -122 -22 -211 22 -183 90 -313 318 -342 600 -13 134
-13 726 1 864 32 316 179 550 389 620 42 14 59 15 105 5 81 -17 186 -73 235
-126 76 -82 129 -234 130 -366 l0 -58 435 0 435 0 0 78 c0 420 -242 752 -647
888 -169 57 -242 66 -590 71 -274 4 -338 3 -424 -12 -483 -80 -825 -427 -930
-942 -21 -99 -23 -143 -27 -549 -2 -242 -7 -447 -12 -454 -4 -7 -26 -16 -48
-20 -39 -7 -42 -5 -93 46 -30 30 -58 54 -64 54 -17 -1 -200 -117 -198 -126 1
-5 9 -39 19 -76 l18 -66 -27 -36 c-27 -34 -29 -35 -104 -38 l-76 -3 -29 -105
c-15 -58 -26 -109 -25 -114 2 -5 32 -25 68 -46 60 -34 64 -39 70 -78 5 -40 3
-44 -48 -94 -34 -34 -51 -58 -48 -68 4 -8 31 -56 61 -107 l54 -91 63 19 c80
24 82 24 123 -8 28 -23 34 -35 34 -65 l0 -38 -244 0 c-217 0 -245 2 -250 16
-11 30 21 64 59 64 32 0 35 3 45 43 6 23 13 47 15 54 2 6 -12 21 -31 32 -41
25 -44 54 -9 90 l24 26 -29 48 c-32 50 -35 52 -73 38 -36 -14 -65 10 -69 56
-3 38 -1 37 -80 56 -23 6 -29 2 -48 -28 -26 -42 -45 -44 -81 -9 l-27 26 -51
-28 c-28 -15 -51 -30 -51 -33 0 -3 4 -22 10 -40 13 -45 -1 -61 -51 -61 -37 0
-39 -1 -54 -52 -20 -67 -21 -63 20 -87 42 -24 44 -45 8 -83 l-26 -28 31 -50
31 -50 -259 0 -260 0 0 -125 0 -125 6600 0 6600 0 0 125 0 125 -245 0 -245 0
0 510 0 510 -175 0 -175 0 0 -510 0 -510 -70 0 -70 0 0 590 0 590 -172 -2
-173 -3 0 -588 0 -587 -72 0 -73 0 0 290 0 290 -170 0 -170 0 0 -290 0 -290
-70 0 -70 0 0 245 0 245 -175 0 -175 0 0 -245 0 -245 -150 0 -150 0 0 1490 0
1490 -534 0 -534 0 -20 -57 c-11 -32 -87 -251 -170 -488 -251 -719 -382 -1095
-415 -1192 -18 -51 -34 -93 -37 -93 -3 0 -147 412 -320 915 l-315 915 -519 2
-520 3 -19 65 c-10 36 -27 95 -38 133 l-20 67 -349 0 -350 0 0 -30z m-725
-734 c131 -36 240 -137 280 -261 27 -81 27 -246 1 -326 -35 -110 -127 -196
-251 -236 -34 -10 -103 -17 -215 -20 l-165 -5 3 437 2 438 143 -6 c82 -3 168
-12 202 -21z m2600 -1879 c118 -329 215 -600 215 -602 0 -3 -103 -5 -230 -5
l-230 0 1 638 c0 559 2 633 14 602 8 -19 111 -304 230 -633z m1400 23 l0 -630
-232 0 -233 0 35 98 c162 453 421 1162 425 1162 3 0 5 -284 5 -630z m-3990
515 c167 -44 272 -160 306 -339 5 -27 9 -135 9 -240 0 -276 19 -423 66 -518
l23 -48 -382 0 -382 0 0 580 0 580 150 0 c103 0 169 -5 210 -15z m-3971 -332
c8 -38 18 -77 21 -89 6 -18 3 -20 -30 -16 -111 13 -218 -100 -201 -212 15 -94
90 -156 189 -156 61 0 123 33 152 82 l17 30 32 -45 c17 -25 41 -59 54 -75 l22
-30 -50 -46 c-74 -66 -143 -89 -250 -84 -90 5 -153 29 -218 82 -77 65 -130
202 -118 306 20 170 171 313 337 319 25 1 28 -4 43 -66z m40 -229 c37 -37 35
-86 -3 -125 -37 -37 -79 -38 -120 -3 -25 21 -31 33 -31 65 0 83 95 121 154 63z
m-944 -226 c66 -45 93 -107 79 -182 -12 -67 -68 -123 -135 -135 -112 -20 -204
56 -204 169 0 66 24 110 79 147 47 32 135 32 181 1z m1354 -228 c38 -28 105
-68 149 -90 l79 -40 -163 0 c-149 1 -162 2 -137 15 l27 15 -20 67 c-29 103
-30 102 65 33z m-1604 -120 c11 -7 2 -9 -30 -9 -37 1 -41 2 -20 9 34 11 33 11
50 0z m1253 -7 c-7 -2 -21 -2 -30 0 -10 3 -4 5 12 5 17 0 24 -2 18 -5z"/>
<path d="M1569 4781 c-20 -20 -29 -39 -29 -61 0 -43 47 -90 90 -90 43 0 90 47
90 90 0 43 -47 90 -90 90 -22 0 -41 -9 -61 -29z m91 -31 c11 -11 20 -24 20
-30 0 -5 -9 -19 -20 -30 -25 -25 -35 -25 -60 0 -21 21 -18 46 8 68 21 16 29
15 52 -8z"/>
<path d="M3200 7661 c-424 -158 -724 -528 -806 -994 -16 -85 -16 -100 -3 -108
26 -16 49 -10 49 14 0 38 38 202 65 282 119 354 409 650 743 756 52 17 71 27
67 37 -3 7 -5 20 -5 28 0 20 -25 17 -110 -15z"/>
<path d="M9721 7614 c-12 -31 -20 -58 -19 -59 10 -8 50 -26 52 -23 9 11 48
119 45 123 -2 2 -16 6 -30 10 -24 6 -27 2 -48 -51z"/>
<path d="M5860 7596 l0 -66 30 0 31 0 -3 63 c-3 59 -4 62 -30 65 l-28 3 0 -65z"/>
<path d="M9620 7364 c-11 -31 -19 -58 -18 -59 2 -1 13 -8 26 -14 21 -11 24 -9
47 44 14 30 25 59 25 64 0 8 -32 20 -52 21 -4 0 -16 -25 -28 -56z"/>
<path d="M1887 7333 c-20 -27 -47 -59 -58 -73 l-21 -25 -37 41 -37 42 -32 -27
-32 -26 71 -77 70 -78 91 112 91 111 -27 24 c-15 12 -30 23 -35 23 -4 0 -24
-21 -44 -47z"/>
<path d="M9525 7125 c-14 -30 -25 -59 -25 -64 0 -10 24 -21 44 -21 11 0 63
107 55 114 -2 2 -14 9 -27 15 -21 11 -24 9 -47 -44z"/>
<path d="M1887 6923 c-20 -27 -47 -59 -58 -73 l-21 -25 -37 41 -37 42 -30 -28
-31 -27 69 -76 70 -77 91 112 91 111 -30 23 c-16 13 -31 24 -34 24 -3 0 -23
-21 -43 -47z"/>
<path d="M9421 6869 c-13 -33 -21 -62 -20 -64 2 -2 16 -6 30 -10 24 -6 27 -2
48 51 12 31 20 58 19 59 -6 4 -47 25 -50 25 -2 0 -14 -27 -27 -61z"/>
<path d="M1870 6490 c-30 -38 -58 -70 -61 -70 -4 0 -23 18 -42 39 l-35 39 -28
-29 -28 -29 24 -27 c14 -16 44 -49 69 -75 l44 -47 75 92 c41 51 82 100 91 110
15 18 14 21 -14 43 -17 13 -32 24 -35 24 -3 0 -30 -31 -60 -70z"/>
<path d="M13507 6424 c-4 -4 -7 -18 -7 -31 0 -20 5 -23 43 -23 l42 -1 -97 -92
c-53 -51 -150 -142 -216 -204 l-119 -112 -131 80 c-73 44 -136 79 -141 77 -7
-2 -619 -558 -721 -655 -24 -23 -24 -23 -5 -42 20 -19 24 -15 378 310 l358
329 130 -80 c72 -44 134 -80 138 -80 5 0 111 97 236 216 125 118 230 213 233
209 3 -3 6 -22 6 -43 1 -33 4 -37 26 -37 25 0 25 1 25 90 l0 90 -85 3 c-47 1
-89 0 -93 -4z"/>
</g>
</svg>
